<?xml version="1.0" encoding="UTF-8" standalone="no"?>
<svg width="112px" height="66px" viewBox="0 0 112 66" version="1.1" xmlns="http://www.w3.org/2000/svg" xmlns:xlink="http://www.w3.org/1999/xlink" xmlns:sketch="http://www.bohemiancoding.com/sketch/ns">
    <!-- Generator: Sketch 3.3.2 (12043) - http://www.bohemiancoding.com/sketch -->
    <title>Shape</title>
    <desc>Created with Sketch.</desc>
    <defs></defs>
    <g id="Page-1" stroke="none" stroke-width="1" fill="none" fill-rule="evenodd" sketch:type="MSPage">
        <g id="Desktop" sketch:type="MSArtboardGroup" transform="translate(-456.000000, -1558.000000)" fill="#D60073">
            <g id="logo-stamp" sketch:type="MSLayerGroup" transform="translate(456.000000, 1558.000000)">
                <path d="M106.396355,59.8996756 L104.454161,57.7126029 C103.572829,57.5820314 97.3055791,56.7006738 91.2668229,58.3164961 C90.4670958,58.2512104 88.9002834,58.1696032 88.0026304,58.1369603 C95.2817797,55.1338158 101.483746,55.2970302 102.365078,55.3459945 L100.357599,53.0773147 C100.324957,53.0773147 91.9523034,53.909708 84.8853266,58.2512104 C83.7918221,58.3817819 82.8125643,58.5449963 81.8659485,58.8061393 C90.5813425,52.7182431 97.5014307,50.9392064 98.3011578,50.7433491 L96.1794327,48.3440978 C95.4286684,48.7031695 87.3824338,52.5223858 78.6833608,59.6711754 C77.8509917,59.9486399 76.7901291,60.3240329 76.1699325,60.6341403 C86.9417678,50.9065635 93.3722271,46.2875967 93.9761027,45.8632393 L91.7074889,43.3007736 C91.0220085,43.986274 81.3763196,53.5996007 73.3790479,61.7929623 C72.9383819,61.9724981 71.7143097,62.4784627 71.2736437,62.6416771 L89.3735913,40.6730222 L86.9580888,37.9310207 L69.3314492,63.3271774 C68.7112526,63.5230347 68.3195495,63.6699276 67.6993529,63.8168206 L84.4120186,35.0584477 L81.8169856,32.120589 L65.9856518,64.1758922 C65.9856518,64.1758922 64.9900731,64.355428 64.3372346,64.3391066 L79.1403477,29.0848016 L76.382105,25.967407 L62.6888174,64.3064637 C62.2481514,64.3064637 61.3504985,64.1269279 61.0893631,64.0289993 L73.5096156,22.719441 L70.5228795,19.324582 L59.6694393,63.4251061 C59.1145266,63.1802845 58.7554654,62.8701772 58.2821575,62.527427 L67.3892546,15.7665086 L64.1087411,12.0615423 L57.0417643,61.4338907 C56.6663822,61.0095333 56.1767533,60.4546044 55.7850502,59.8996756 L60.7303019,8.25864737 L57.1396901,4.19460943 L54.6425828,57.9084602 C53.8265347,56.1294235 53.4185106,54.3014225 53.4185106,52.8324931 L53.4185106,0 L7.10542736e-15,65.4 L111.260002,65.4 C111.260002,65.4 105.12332,60.6831046 95.167533,58.8551036 C99.8190073,58.3164961 105.074357,59.5569254 106.396355,59.8996756 Z" id="Shape" sketch:type="MSShapeGroup"></path>
            </g>
        </g>
    </g>
</svg>